# xmcd
#
# Track frame offsets:
#	183
#	10280
#	28558
#	39600
#	66103
#	93568
#	103533
#	111993
#	154713
#	175170
#
# Disc length: 2479 seconds
#
# Revision: 1
# Processed by: cddbd v1.5.2PL0 Copyright (c) Steve Scherf et al.
# Submitted via: audiograbber 1.83.01
#
DISCID=7a09ad0a
DTITLE=Marillion - Misplaced Childhood
DYEAR=1985
DGENRE=symphonic rock
TTITLE0=Pseudo Silk Kimono
TTITLE1=Kayleigh
TTITLE2=Lavender
TTITLE3=Bitter Suite
TTITLE4=Heart Of Lothian
TTITLE5=Waterhole (Expresso Bongo)
TTITLE6=Lords Of The Backstage
TTITLE7=Blind Curve
TTITLE8=Childhood's End?
TTITLE9=White Feather
EXTD=
EXTT0=
EXTT1=
EXTT2=
EXTT3=
EXTT4=
EXTT5=
EXTT6=
EXTT7=
EXTT8=
EXTT9=
PLAYORDER=
